HIERARCHY
ROOT Spine
{
    OFFSET 0.0 0.0 -0.0
    CHANNELS 6 Xposition Yposition Zposition Zrotation Xrotation Yrotation
    JOINT ShoulderCenter
    {
        OFFSET 0.0 31.102407455444336 0.0
        CHANNELS 3 Zrotation Xrotation Yrotation
        JOINT LeftShoulder
        {
            OFFSET 19.383438110351562 0.0 0.0
            CHANNELS 3 Zrotation Xrotation Yrotation
            JOINT LeftElbow
            {
                OFFSET 26.1624698638916 0.0 0.0
                CHANNELS 3 Zrotation Xrotation Yrotation
                JOINT LeftHand
                {
                    OFFSET 33.42194366455078 0.0 0.0
                    CHANNELS 3 Zrotation Xrotation Yrotation
                    End Site
                    {
                        OFFSET 13.368778228759766 0.0 0.0
                    }
                }
            }
        }
        JOINT RightShoulder
        {
            OFFSET -19.383438110351562 0.0 0.0
            CHANNELS 3 Zrotation Xrotation Yrotation
            JOINT RightElbow
            {
                OFFSET -26.1624698638916 0.0 0.0
                CHANNELS 3 Zrotation Xrotation Yrotation
                JOINT RightHand
                {
                    OFFSET -33.42194366455078 0.0 0.0
                    CHANNELS 3 Zrotation Xrotation Yrotation
                    End Site
                    {
                        OFFSET -13.368778228759766 0.0 0.0
                    }
                }
            }
        }
        End Site
        {
            OFFSET 0.0 12.440961837768555 0.0
        }
    }
    JOINT LeftHip
    {
        OFFSET 16.331918633662113 -16.331918633662113 0.0
        CHANNELS 3 Zrotation Xrotation Yrotation
        JOINT LeftKnee
        {
            OFFSET 0.0 -41.68223190307617 0.0
            CHANNELS 3 Zrotation Xrotation Yrotation
            JOINT LeftFoot
            {
                OFFSET 0.0 -46.689056396484375 0.0
                CHANNELS 3 Zrotation Xrotation Yrotation
                End Site
                {
                    OFFSET 0.0 0.0 18.67562484741211
                }
            }
        }
    }
    JOINT RightHip
    {
        OFFSET -16.331918633662113 -16.331918633662113 0.0
        CHANNELS 3 Zrotation Xrotation Yrotation
        JOINT RightKnee
        {
            OFFSET 0.0 -41.68223190307617 0.0
            CHANNELS 3 Zrotation Xrotation Yrotation
            JOINT RightFoot
            {
                OFFSET 0.0 -46.689056396484375 0.0
                CHANNELS 3 Zrotation Xrotation Yrotation
                End Site
                {
                    OFFSET 0.0 0.0 18.67562484741211
                }
            }
        }
    }
}
MOTION
Frames: 14
Frame Time: 0.03333333333333333
-3.5 16.0 33.5 -1.6629583933842216 -4.057644085728191 -1.5401352336192884 -1.2021584770299515e-07 2.121820111814898e-07 3.153791460356585 89.60671377458019 -3.715211517429461 165.44887867817687 -6.149655218263132e-07 -1.6633676537937185e-07 41.22382739288753 7.156248033292912e-15 -6.361109362927033e-15 3.972515668245143e-31 -91.5726138536943 9.384333476992063 -161.74501966130666 4.826723165347191e-06 -3.203124684182718e-06 -39.72641116362723 2.782985346280577e-15 4.770832022195275e-15 -1.1586504032381667e-31 6.200607050898596 1.430159762146199 -25.099656079105905 0.8904370539139004 9.451908584056424 -29.377374487273993 7.951386703658794e-16 5.517382872562698e-33 7.951386703658794e-16 -21.653253442298 6.35031913448929 83.76940642800179 -13.576370136787938 -1.9736628118631174 -122.95540406216884 3.1805546814635176e-15 -3.1805546814635176e-15 -4.770832022195277e-15
-3.5 16.0 33.5 -1.6629583933842216 -4.057644085728191 -1.5401352336192884 -4.724066582719887e-08 -1.223433525764817e-07 3.158306550258465 89.6093648781794 -3.7375744083079483 165.48725718817852 1.5070245054760308e-06 -8.16597358705301e-07 41.27293944688084 -7.951386703658792e-16 0.0 0.0 -91.71320553725961 8.99806902971763 -161.53654704687966 5.496689803526964e-06 -4.556363816739973e-08 -40.13940614818643 -7.951386703658794e-16 0.0 0.0 6.200607050898596 1.430159762146199 -25.099656079105905 0.8904370539139004 9.451908584056424 -29.377374487273993 7.951386703658794e-16 5.517382872562698e-33 7.951386703658794e-16 -21.653253442298 6.35031913448929 83.76940642800179 -13.576370136787938 -1.9736628118631174 -122.95540406216884 3.1805546814635176e-15 -3.1805546814635176e-15 -4.770832022195277e-15
-3.5 16.0 33.5 -1.6629583933842216 -4.057644085728191 -1.5401352336192884 -4.505362180346776e-08 6.480051252793548e-08 3.1687534594418203 89.60936078249941 -3.7480211438933133 165.48718613865333 1.5070245054760308e-06 -8.16597358705301e-07 41.27293944688084 -7.951386703658792e-16 0.0 0.0 -91.70681528441897 9.024516537625619 -161.5916268556263 7.312255197695957e-07 -2.4278141977896685e-06 -40.08502072160724 6.758678698109972e-15 3.1805546814635164e-15 -1.8759101766713175e-31 6.200607050898596 1.430159762146199 -25.099656079105905 0.8904370539139004 9.451908584056424 -29.377374487273993 7.951386703658794e-16 5.517382872562698e-33 7.951386703658794e-16 -21.646250707596113 6.214270469527174 83.66804490620122 -13.438351601545582 -1.9759581106143225 -122.85243815041737 3.1805546814635176e-15 -3.1805546814635176e-15 -4.770832022195277e-15
-3.5 16.0 33.5 -1.6629583933842216 -4.057644085728191 -1.5401352336192884 -7.03924994030371e-08 3.937545589030058e-07 3.3073575983834145 89.54773149123051 -4.13036936283639 165.65267629819 -2.9023395479848928e-06 4.0356057273799265e-06 41.01769829426593 7.951386703658792e-16 0.0 0.0 -91.71391698609538 9.147053406341378 -161.53203400594873 5.496689803526964e-06 -4.556363816739973e-08 -40.13940614818643 -7.951386703658794e-16 0.0 0.0 6.200607050898596 1.430159762146199 -25.099656079105905 0.8904370539139004 9.451908584056424 -29.377374487273993 7.951386703658794e-16 5.517382872562698e-33 7.951386703658794e-16 -21.700302995168954 6.218119902363938 83.92370124082844 -13.418694858815263 -2.0126788754970693 -122.01304680651616 -3.310429723537619e-32 -3.1805546814635168e-15 -1.1927080055488188e-15
-3.5 16.0 33.5 -1.6629584675234705 -4.057644507476872 -1.5482942804197755 -7.891209195991695e-10 8.362017316007166e-07 3.3155166616703924 89.541676577859 -4.118356177542636 165.44329270626812 -2.1039578582892824e-06 7.723316534646812e-07 41.22663927310309 -7.951386703658792e-16 2.2069531490250793e-32 -3.1805546814635168e-15 -91.70975521219682 9.134732044661082 -161.53269429386455 -6.045528606760767e-07 1.6216951569026863e-07 -40.064412807579735 -2.385416011097637e-15 -6.620859447075238e-32 3.1805546814635164e-15 6.200404579128588 1.4310414521168107 -25.091542392168687 0.9482562521710772 9.33609797713069 -29.170672606376844 -7.951386703658791e-16 -3.9756933518293955e-16 -3.0811623476677814e-15 -21.772950911823976 6.202031619047138 85.33864780308711 -13.583667650224221 -1.7272796111573703 -130.20335026603408 -2.3173008064763334e-31 -3.1805546814635168e-15 -8.348956038841732e-15
-3.5 16.0 33.5 -1.6629583933842216 -4.057644085728191 -1.5401352336192884 -7.03924994030371e-08 3.937545589030058e-07 3.3073575983834145 89.60688769056007 -3.8678197046142024 165.44783371734246 -9.790837158701292e-07 1.1091650073079378e-07 41.45735407231069 2.3854160110976376e-15 -3.1805546814635168e-15 -3.1805546814635168e-15 -91.70135810037615 9.239152282036663 -161.80559363096063 -3.38499404213843e-06 1.2386188548306446e-06 -39.715402532901145 1.1927080055488192e-15 1.5902773407317588e-15 -4.770832022195277e-15 6.203240209008606 1.2918985900275024 -24.696237562131895 0.8977566450534171 9.569900504910967 -29.788395324178367 7.951386703658794e-16 5.517382872562698e-33 7.951386703658794e-16 -21.6392495414884 6.078193430943658 83.5644103582793 -13.308981370899915 -1.8710205733739917 -124.39856693344362 -3.1805546814635168e-15 3.1805546814635168e-15 2.782985346280577e-15
-3.5 16.0 33.5 -1.6629585381728134 -4.24142050272939 -1.5437628653665472 8.874005809062953e-08 -3.286318858114693e-07 3.458549064481684 89.60007042412718 -4.014109238863811 165.2626934908797 -1.799394591979375e-07 -1.4212855256078147e-06 41.45735211041827 -1.5902773407317588e-15 3.1805546814635176e-15 4.4139062980501586e-32 -91.74337251019509 9.337964082201395 -161.39513031845436 -3.3923994115697544e-07 -2.062546539705752e-06 -39.93256838915256 -4.770832022195275e-15 -3.1805546814635168e-15 -1.5902773407317584e-15 6.198687073429993 1.474925301504407 -24.712478944018443 0.8977566450534171 9.569900504910967 -29.788395324178367 7.951386703658794e-16 5.517382872562698e-33 7.951386703658794e-16 -21.784955650696368 6.374308962705328 85.40298611291298 -13.583667650224221 -1.7272796111573703 -130.20335026603408 -2.3173008064763334e-31 -3.1805546814635168e-15 -8.348956038841732e-15
-3.5 16.0 33.39999771118164 -1.6629585034872143 -4.057636308492306 -1.214095387835843 1.2295606839470342e-07 -3.45228442141913e-07 3.1303451073108968 89.6715390294822 -3.768059536619743 165.45120579622252 -5.273320446661045e-06 8.598013836536422e-07 41.45515022819516 7.951386703658792e-16 -2.2069531490250793e-32 -3.1805546814635168e-15 -91.71932017702686 9.344975996045942 -161.58115006164198 -3.3923994115697544e-07 -2.062546539705752e-06 -39.93256838915256 -4.770832022195275e-15 -3.1805546814635168e-15 -1.5902773407317584e-15 6.210450527346757 1.2566451784465746 -25.020488683633317 1.0722691091597394 9.507547506211584 -29.91084035730738 -7.951386703658791e-16 -3.9756933518293955e-16 -2.584200678689107e-15 -21.66067541551497 6.20216815446439 83.70302963530577 -13.434288259989895 -1.8399878127485678 -122.36206093011572 0.0 0.0 3.1805546814635168e-15
-3.5 16.0 33.39999771118164 -1.662958467528344 -4.057636952189845 -1.5247919775227003 -2.0212505478080852e-08 2.745663021167001e-07 3.2920146375758503 89.73488660733398 -3.375574410350181 165.45592208281363 -4.356399463604487e-06 -1.0587395482568335e-06 40.840184407103564 -8.74652537402467e-15 -2.427648463927587e-31 3.1805546814635168e-15 -91.71255511566267 9.272777987228057 -161.80379628884938 -1.4691588629557504e-06 4.19190443107675e-07 -39.56258347869237 7.156248033292914e-15 1.5902773407317582e-15 -3.1805546814635168e-15 6.203584410309928 1.2902388080877785 -24.711537439499292 1.0722691091597394 9.507547506211584 -29.91084035730738 -7.951386703658791e-16 -3.9756933518293955e-16 -2.584200678689107e-15 -21.882255746126237 5.9298677145123575 85.26387366642608 -13.293312521064527 -1.8275174838283266 -127.63391417506773 0.0 0.0 -3.975693351829396e-16
-3.4000000953674316 16.0 33.39999771118164 -1.4782725205127363 -4.241794238861896 -1.5221182625790057 -9.386439416849648e-08 -1.733312191820327e-08 3.4505281001902115 89.54740758204481 -3.5377447981768997 165.473836905545 -4.068766768097585e-06 3.022951171831664e-06 40.484025662241635 -2.385416011097637e-15 6.620859447075238e-32 -3.1805546814635164e-15 -91.92851140476515 9.337718800998632 -161.3884967467414 -6.520968614217963e-08 -1.6202456929541563e-06 -39.932560261590034 -7.951386703658792e-16 0.0 0.0 5.8767143359667795 1.4664187525383268 -24.520968866083127 1.2294468141527493 9.563948129653513 -30.110242079466783 -7.951386703658791e-16 -3.9756933518293955e-16 -2.584200678689107e-15 -21.9537425608197 6.101142051844371 84.12094968203486 -13.300492661084617 -1.9419804600484136 -126.3597611398223 1.6552148617688095e-32 7.951386703658792e-16 -2.3854160110976376e-15
-3.5 16.0 33.29999923706055 -1.6629583933842216 -4.057644085728191 -1.5401352336192884 -1.8302213033534204e-07 3.6162828008876614e-07 3.456390276337641 89.80030555632601 -3.272726814188205 165.45911400803007 5.890209610266783e-06 2.4359813483112513e-07 40.83901772740061 2.3854160110976376e-15 -3.1805546814635168e-15 -3.1805546814635168e-15 -91.71932106368132 9.344982442907105 -161.5811423477855 -6.520968614217963e-08 -1.6202456929541563e-06 -39.932560261590034 -7.951386703658792e-16 0.0 0.0 6.203239880796007 1.2919040180692725 -25.07590091451461 0.8915200134754215 9.459793902757468 -29.017281430164367 -7.951386703658792e-16 -6.000153873911935e-32 8.647133040228937e-15 -21.632253750229943 5.9420821584378425 84.72802069889883 -13.31545452638163 -1.7071634898302068 -125.04943771217783 8.276074308844047e-33 -7.951386703658792e-16 1.1927080055488188e-15
-3.5 16.0 33.29999923706055 -1.6629583933842216 -4.057644085728191 -1.5401352336192884 -7.03924994030371e-08 3.937545589030058e-07 3.3073575983834145 89.79876637927836 -3.1297371432723633 165.45954876703638 3.919234387945217e-07 2.277494232096601e-06 40.691889595071636 -3.1805546814635168e-15 8.827812596100317e-32 -3.1805546814635168e-15 -91.71255802333167 9.272778181473956 -161.80379715099232 -4.065519343949601e-06 1.9855803561584883e-06 -39.562575412147154 7.156248033292914e-15 1.5902773407317582e-15 -3.1805546814635168e-15 6.203239880796007 1.2919040180692725 -25.07590091451461 0.8771682226013713 9.439960714829772 -28.944455750539184 -1.5902773407317584e-15 -6.896728590703373e-32 4.969616689786745e-15 -21.632253750229943 5.9420821584378425 84.72802069889883 -13.429122325330713 -1.7231513959580107 -127.27077877657881 -3.1805546814635164e-15 -7.95138670365879e-16 -2.7829853462805768e-15
-3.5 16.0 33.29999923706055 -1.6629584109437796 -4.057643915549914 -1.5401477403745505 -5.2521712205372455e-08 2.1296622110392243e-07 3.3073700910617854 89.72895024186529 -3.374462068492068 165.24681154240318 -2.05424726041859e-06 5.389128357665997e-07 40.90182999322504 2.385416011097637e-15 3.1805546814635164e-15 -3.1805546814635164e-15 -91.71858863849887 9.19601711724077 -161.58568019279633 2.7070150245116226e-07 -1.8115533559334505e-06 -39.93255118750544 3.9756933518293955e-16 5.517382872562698e-33 1.5902773407317582e-15 6.205871630721654 1.1536828163014354 -23.932404086460703 1.023744508245772 9.565352452861669 -29.744319910927576 7.95138670365879e-16 -1.5902773407317582e-15 -9.442271710594814e-15 -21.63225339399861 5.942073102903137 84.55532827119107 -13.42400488579263 -1.7632522118996108 -131.31656854406194 0.0 0.0 9.14409470920761e-15
-3.5 16.0 33.29999923706055 -1.6629584648017355 -4.2414203356840385 -1.543775263317228 -5.634995140007848e-08 -2.1644133134834202e-07 3.309569195126342 89.79097289087673 -3.120665405180479 165.06660768797695 -4.126567402873034e-06 1.0869988504998549e-07 40.90069030911496 3.1805546814635168e-15 0.0 0.0 -91.64098343863847 8.980865407978369 -161.63300701860086 2.590103714820244e-06 -3.6082185082642735e-07 -39.699059434342004 -5.168401357378215e-15 -3.1805546814635168e-15 -1.5902773407317584e-15 6.339240407866041 1.3398783877236846 -24.505737925582068 0.7914729381071082 9.495029900301066 -29.721564322746346 -7.951386703658794e-16 -4.4828735839571924e-32 6.46050169672277e-15 -21.770591025811814 6.102384069549033 85.22986239838745 -13.567753422717775 -1.6114173771217517 -136.76634667580686 0.0 0.0 0.0
